<svg version="1.1" xmlns="http://www.w3.org/2000/svg" xmlns:xlink="http://www.w3.org/1999/xlink" width="32.04698" height="31.42211" viewBox="0,0,32.04698,31.42211"><g transform="translate(-224.01111,-164.17092)"><g data-paper-data="{&quot;isPaintingLayer&quot;:true}" fill-rule="nonzero" stroke="#000000" stroke-width="1" stroke-linejoin="miter" stroke-miterlimit="10" stroke-dasharray="" stroke-dashoffset="0" style="mix-blend-mode: normal"><g><g><path d="M250.37099,172.58154l-0.02919,2.94203" fill="none" stroke-linecap="round"/><g stroke-linecap="butt"><path d="M253.39232,169.29476c0,1.67949 -1.34839,3.04098 -3.0117,3.04098c-1.66332,0 -3.0117,-1.36149 -3.0117,-3.04098c0,-1.67949 1.34839,-3.04098 3.0117,-3.04098c1.66332,0 3.0117,1.36149 3.0117,3.04098z" fill="#ffffff"/><path d="M253.88055,167.69226l-7.3543,1.65979c0,0 -0.7941,-3.69575 2.83919,-4.54279c3.85895,-0.89965 4.51512,2.883 4.51512,2.883z" fill="#810000"/></g></g><g><path d="M245.87099,172.58154l-0.02919,2.94203" fill="none" stroke-linecap="round"/><g stroke-linecap="butt"><path d="M248.89232,169.29476c0,1.67949 -1.34839,3.04098 -3.0117,3.04098c-1.66332,0 -3.0117,-1.36149 -3.0117,-3.04098c0,-1.67949 1.34839,-3.04098 3.0117,-3.04098c1.66332,0 3.0117,1.36149 3.0117,3.04098z" fill="#ffffff"/><path d="M249.38055,167.69226l-7.3543,1.65979c0,0 -0.7941,-3.69575 2.83919,-4.54279c3.85895,-0.89965 4.51512,2.883 4.51512,2.883z" fill="#810000"/></g></g><g><path d="M240.9668,175.52357l0.02919,-2.94203" fill="none" stroke-linecap="round"/><g stroke-linecap="butt"><path d="M244.01732,169.29476c0,1.67949 -1.34839,3.04098 -3.0117,3.04098c-1.66332,0 -3.0117,-1.36149 -3.0117,-3.04098c0,-1.67949 1.34839,-3.04098 3.0117,-3.04098c1.66332,0 3.0117,1.36149 3.0117,3.04098z" fill="#ffffff"/><path d="M244.50555,167.69226l-7.3543,1.65979c0,0 -0.7941,-3.69575 2.83919,-4.54279c3.85895,-0.89965 4.51512,2.883 4.51512,2.883z" fill="#810000"/></g></g><g><path d="M235.84181,175.64858l0.02919,-2.94203" fill="none" stroke-linecap="round"/><g stroke-linecap="butt"><path d="M238.89233,169.41977c0,1.67949 -1.34839,3.04098 -3.0117,3.04098c-1.66332,0 -3.0117,-1.36149 -3.0117,-3.04098c0,-1.67949 1.34839,-3.04098 3.0117,-3.04098c1.66332,0 3.0117,1.36149 3.0117,3.04098z" fill="#ffffff"/><path d="M239.38056,167.81727l-7.3543,1.65979c0,0 -0.7941,-3.69575 2.83919,-4.54279c3.85895,-0.89965 4.51512,2.883 4.51512,2.883z" fill="#810000"/></g></g><g><path d="M230.9668,175.64857l0.02919,-2.94203" fill="none" stroke-linecap="round"/><g stroke-linecap="butt"><path d="M234.01732,169.41976c0,1.67949 -1.34839,3.04098 -3.0117,3.04098c-1.66332,0 -3.0117,-1.36149 -3.0117,-3.04098c0,-1.67949 1.34839,-3.04098 3.0117,-3.04098c1.66332,0 3.0117,1.36149 3.0117,3.04098z" fill="#ffffff"/><path d="M234.50555,167.81726l-7.3543,1.65979c0,0 -0.7941,-3.69575 2.83919,-4.54279c3.85895,-0.89965 4.51512,2.883 4.51512,2.883z" fill="#810000"/></g></g></g><g><g><path d="M250.03766,178.80376l-0.02919,2.94203" fill="none" stroke-linecap="round"/><g stroke-linecap="butt"><path d="M253.05899,175.51698c0,1.67949 -1.34839,3.04098 -3.0117,3.04098c-1.66332,0 -3.0117,-1.36149 -3.0117,-3.04098c0,-1.67949 1.34839,-3.04098 3.0117,-3.04098c1.66332,0 3.0117,1.36149 3.0117,3.04098z" fill="#ffffff"/><path d="M253.54722,173.91448l-7.3543,1.65979c0,0 -0.7941,-3.69575 2.83919,-4.54279c3.85895,-0.89965 4.51512,2.883 4.51512,2.883z" fill="#810000"/></g></g><g><path d="M245.53766,178.80376l-0.02919,2.94203" fill="none" stroke-linecap="round"/><g stroke-linecap="butt"><path d="M248.55899,175.51698c0,1.67949 -1.34839,3.04098 -3.0117,3.04098c-1.66332,0 -3.0117,-1.36149 -3.0117,-3.04098c0,-1.67949 1.34839,-3.04098 3.0117,-3.04098c1.66332,0 3.0117,1.36149 3.0117,3.04098z" fill="#ffffff"/><path d="M249.04722,173.91448l-7.3543,1.65979c0,0 -0.7941,-3.69575 2.83919,-4.54279c3.85895,-0.89965 4.51512,2.883 4.51512,2.883z" fill="#810000"/></g></g><g><path d="M240.63347,181.74579l0.02919,-2.94203" fill="none" stroke-linecap="round"/><g stroke-linecap="butt"><path d="M243.68399,175.51698c0,1.67949 -1.34839,3.04098 -3.0117,3.04098c-1.66332,0 -3.0117,-1.36149 -3.0117,-3.04098c0,-1.67949 1.34839,-3.04098 3.0117,-3.04098c1.66332,0 3.0117,1.36149 3.0117,3.04098z" fill="#ffffff"/><path d="M244.17222,173.91448l-7.3543,1.65979c0,0 -0.7941,-3.69575 2.83919,-4.54279c3.85895,-0.89965 4.51512,2.883 4.51512,2.883z" fill="#810000"/></g></g><g><path d="M235.53767,178.92877l-0.02919,2.94203" fill="none" stroke-linecap="round"/><g stroke-linecap="butt"><path d="M238.559,175.64199c0,1.67949 -1.34839,3.04098 -3.0117,3.04098c-1.66332,0 -3.0117,-1.36149 -3.0117,-3.04098c0,-1.67949 1.34839,-3.04098 3.0117,-3.04098c1.66332,0 3.0117,1.36149 3.0117,3.04098z" fill="#ffffff"/><path d="M239.04723,174.03949l-7.3543,1.65979c0,0 -0.7941,-3.69575 2.83919,-4.54279c3.85895,-0.89965 4.51512,2.883 4.51512,2.883z" fill="#810000"/></g></g><g><path d="M230.63347,181.87079l0.02919,-2.94203" fill="none" stroke-linecap="round"/><g stroke-linecap="butt"><path d="M233.68399,175.64198c0,1.67949 -1.34839,3.04098 -3.0117,3.04098c-1.66332,0 -3.0117,-1.36149 -3.0117,-3.04098c0,-1.67949 1.34839,-3.04098 3.0117,-3.04098c1.66332,0 3.0117,1.36149 3.0117,3.04098z" fill="#ffffff"/><path d="M234.17222,174.03948l-7.3543,1.65979c0,0 -0.7941,-3.69575 2.83919,-4.54279c3.85895,-0.89965 4.51512,2.883 4.51512,2.883z" fill="#810000"/></g></g></g><g><g><path d="M251.92513,188.38882l0.02919,-2.94203" fill="none" stroke-linecap="round"/><g stroke-linecap="butt"><path d="M254.97565,182.16001c0,1.67949 -1.34839,3.04098 -3.0117,3.04098c-1.66332,0 -3.0117,-1.36149 -3.0117,-3.04098c0,-1.67949 1.34839,-3.04098 3.0117,-3.04098c1.66332,0 3.0117,1.36149 3.0117,3.04098z" fill="#ffffff"/><path d="M255.46388,180.55751l-7.3543,1.65979c0,0 -0.7941,-3.69575 2.83919,-4.54279c3.85895,-0.89965 4.51512,2.883 4.51512,2.883z" fill="#810000"/></g></g><g><g><path d="M247.82932,185.42179l-0.02919,2.94203" fill="none" stroke-linecap="round"/><g stroke-linecap="butt"><path d="M250.85065,182.13501c0,1.67949 -1.34839,3.04098 -3.0117,3.04098c-1.66332,0 -3.0117,-1.36149 -3.0117,-3.04098c0,-1.67949 1.34839,-3.04098 3.0117,-3.04098c1.66332,0 3.0117,1.36149 3.0117,3.04098z" fill="#ffffff"/><path d="M251.33888,180.53251l-7.3543,1.65979c0,0 -0.7941,-3.69575 2.83919,-4.54279c3.85895,-0.89965 4.51512,2.883 4.51512,2.883z" fill="#810000"/></g></g><g><path d="M243.30013,188.36382l0.02919,-2.94203" fill="none" stroke-linecap="round"/><g stroke-linecap="butt"><path d="M246.35065,182.13501c0,1.67949 -1.34839,3.04098 -3.0117,3.04098c-1.66332,0 -3.0117,-1.36149 -3.0117,-3.04098c0,-1.67949 1.34839,-3.04098 3.0117,-3.04098c1.66332,0 3.0117,1.36149 3.0117,3.04098z" fill="#ffffff"/><path d="M246.83888,180.53251l-7.3543,1.65979c0,0 -0.7941,-3.69575 2.83919,-4.54279c3.85895,-0.89965 4.51512,2.883 4.51512,2.883z" fill="#810000"/></g></g><g><path d="M238.42513,188.36382l0.02919,-2.94203" fill="none" stroke-linecap="round"/><g stroke-linecap="butt"><path d="M241.47565,182.13501c0,1.67949 -1.34839,3.04098 -3.0117,3.04098c-1.66332,0 -3.0117,-1.36149 -3.0117,-3.04098c0,-1.67949 1.34839,-3.04098 3.0117,-3.04098c1.66332,0 3.0117,1.36149 3.0117,3.04098z" fill="#ffffff"/><path d="M241.96388,180.53251l-7.3543,1.65979c0,0 -0.7941,-3.69575 2.83919,-4.54279c3.85895,-0.89965 4.51512,2.883 4.51512,2.883z" fill="#810000"/></g></g><g><path d="M233.30014,188.48883l0.02919,-2.94203" fill="none" stroke-linecap="round"/><g stroke-linecap="butt"><path d="M236.35066,182.26002c0,1.67949 -1.34839,3.04098 -3.0117,3.04098c-1.66332,0 -3.0117,-1.36149 -3.0117,-3.04098c0,-1.67949 1.34839,-3.04098 3.0117,-3.04098c1.66332,0 3.0117,1.36149 3.0117,3.04098z" fill="#ffffff"/><path d="M236.83889,180.65752l-7.3543,1.65979c0,0 -0.7941,-3.69575 2.83919,-4.54279c3.85895,-0.89965 4.51512,2.883 4.51512,2.883z" fill="#810000"/></g></g><g><path d="M228.45432,185.54679l-0.02919,2.94203" fill="none" stroke-linecap="round"/><g stroke-linecap="butt"><path d="M231.47565,182.26001c0,1.67949 -1.34839,3.04098 -3.0117,3.04098c-1.66332,0 -3.0117,-1.36149 -3.0117,-3.04098c0,-1.67949 1.34839,-3.04098 3.0117,-3.04098c1.66332,0 3.0117,1.36149 3.0117,3.04098z" fill="#ffffff"/><path d="M231.96388,180.65751l-7.3543,1.65979c0,0 -0.7941,-3.69575 2.83919,-4.54279c3.85895,-0.89965 4.51512,2.883 4.51512,2.883z" fill="#810000"/></g></g></g></g><g><g><path d="M251.90013,194.99302l0.02919,-2.94203" fill="none" stroke-linecap="round"/><g stroke-linecap="butt"><path d="M254.95065,188.76421c0,1.67949 -1.34839,3.04098 -3.0117,3.04098c-1.66332,0 -3.0117,-1.36149 -3.0117,-3.04098c0,-1.67949 1.34839,-3.04098 3.0117,-3.04098c1.66332,0 3.0117,1.36149 3.0117,3.04098z" fill="#ffffff"/><path d="M255.43888,187.16171l-7.3543,1.65979c0,0 -0.7941,-3.69575 2.83919,-4.54279c3.85895,-0.89965 4.51512,2.883 4.51512,2.883z" fill="#810000"/></g></g><g><g><path d="M247.80432,192.02599l-0.02919,2.94203" fill="none" stroke-linecap="round"/><g stroke-linecap="butt"><path d="M250.82565,188.73921c0,1.67949 -1.34839,3.04098 -3.0117,3.04098c-1.66332,0 -3.0117,-1.36149 -3.0117,-3.04098c0,-1.67949 1.34839,-3.04098 3.0117,-3.04098c1.66332,0 3.0117,1.36149 3.0117,3.04098z" fill="#ffffff"/><path d="M251.31388,187.13671l-7.3543,1.65979c0,0 -0.7941,-3.69575 2.83919,-4.54279c3.85895,-0.89965 4.51512,2.883 4.51512,2.883z" fill="#810000"/></g></g><g><path d="M243.27513,194.96802l0.02919,-2.94203" fill="none" stroke-linecap="round"/><g stroke-linecap="butt"><path d="M246.32565,188.73921c0,1.67949 -1.34839,3.04098 -3.0117,3.04098c-1.66332,0 -3.0117,-1.36149 -3.0117,-3.04098c0,-1.67949 1.34839,-3.04098 3.0117,-3.04098c1.66332,0 3.0117,1.36149 3.0117,3.04098z" fill="#ffffff"/><path d="M246.81388,187.13671l-7.3543,1.65979c0,0 -0.7941,-3.69575 2.83919,-4.54279c3.85895,-0.89965 4.51512,2.883 4.51512,2.883z" fill="#810000"/></g></g><g><path d="M238.40013,194.96802l0.02919,-2.94203" fill="none" stroke-linecap="round"/><g stroke-linecap="butt"><path d="M241.45065,188.73921c0,1.67949 -1.34839,3.04098 -3.0117,3.04098c-1.66332,0 -3.0117,-1.36149 -3.0117,-3.04098c0,-1.67949 1.34839,-3.04098 3.0117,-3.04098c1.66332,0 3.0117,1.36149 3.0117,3.04098z" fill="#ffffff"/><path d="M241.93888,187.13671l-7.3543,1.65979c0,0 -0.7941,-3.69575 2.83919,-4.54279c3.85895,-0.89965 4.51512,2.883 4.51512,2.883z" fill="#810000"/></g></g><g><path d="M233.27514,195.09303l0.02919,-2.94203" fill="none" stroke-linecap="round"/><g stroke-linecap="butt"><path d="M236.32566,188.86422c0,1.67949 -1.34839,3.04098 -3.0117,3.04098c-1.66332,0 -3.0117,-1.36149 -3.0117,-3.04098c0,-1.67949 1.34839,-3.04098 3.0117,-3.04098c1.66332,0 3.0117,1.36149 3.0117,3.04098z" fill="#ffffff"/><path d="M236.81389,187.26172l-7.3543,1.65979c0,0 -0.7941,-3.69575 2.83919,-4.54279c3.85895,-0.89965 4.51512,2.883 4.51512,2.883z" fill="#810000"/></g></g><g><path d="M228.42932,192.15099l-0.02919,2.94203" fill="none" stroke-linecap="round"/><g stroke-linecap="butt"><path d="M231.45065,188.86421c0,1.67949 -1.34839,3.04098 -3.0117,3.04098c-1.66332,0 -3.0117,-1.36149 -3.0117,-3.04098c0,-1.67949 1.34839,-3.04098 3.0117,-3.04098c1.66332,0 3.0117,1.36149 3.0117,3.04098z" fill="#ffffff"/><path d="M231.93888,187.26171l-7.3543,1.65979c0,0 -0.7941,-3.69575 2.83919,-4.54279c3.85895,-0.89965 4.51512,2.883 4.51512,2.883z" fill="#810000"/></g></g></g></g></g></g></svg>