<svg version="1.1" xmlns="http://www.w3.org/2000/svg" xmlns:xlink="http://www.w3.org/1999/xlink" width="19.4" height="19.4" viewBox="0,0,19.4,19.4"><g transform="translate(-230.3,-170.3)"><g data-paper-data="{&quot;isPaintingLayer&quot;:true}" fill-rule="nonzero" stroke="#000000" stroke-linecap="butt" stroke-linejoin="miter" stroke-miterlimit="10" stroke-dasharray="" stroke-dashoffset="0" style="mix-blend-mode: normal"><path d="M231.3,188.7v-17.4h17.4v17.4z" fill="#ffffff" stroke-width="2"/><g fill="#000000" stroke-width="0.5"><g><path d="M234.70829,183.61095c0,0 -1.86929,0.11177 -1.83427,-1.63732c0.02568,-1.28225 1.83427,-1.37889 1.83427,-1.37889h10.66576c0,0 1.36603,-0.07755 1.43606,1.42338c0.06358,1.36275 -1.43606,1.59283 -1.43606,1.59283z"/><path d="M235.70184,182.06961c0,0.76044 -0.61401,1.37689 -1.37142,1.37689c-0.75741,0 -1.37142,-0.61646 -1.37142,-1.37689c0,-0.76044 0.61401,-1.37689 1.37142,-1.37689c0.75741,0 1.37142,0.61645 1.37142,1.37689z"/><path d="M238.44935,182.10335c0,0.76044 -0.61401,1.37689 -1.37142,1.37689c-0.75741,0 -1.37142,-0.61645 -1.37142,-1.37689c0,-0.76044 0.61401,-1.37689 1.37142,-1.37689c0.75741,0 1.37142,0.61646 1.37142,1.37689z"/><path d="M241.24324,182.06724c0,0.76044 -0.61401,1.37689 -1.37142,1.37689c-0.75741,0 -1.37142,-0.61646 -1.37142,-1.37689c0,-0.76044 0.61401,-1.37689 1.37142,-1.37689c0.75741,0 1.37142,0.61645 1.37142,1.37689z"/><path d="M243.99073,182.07768c0,0.76044 -0.61401,1.37689 -1.37142,1.37689c-0.75741,0 -1.37142,-0.61646 -1.37142,-1.37689c0,-0.76044 0.61401,-1.37689 1.37142,-1.37689c0.75741,0 1.37142,0.61645 1.37142,1.37689z"/><path d="M246.78462,182.06486c0,0.76044 -0.61401,1.37689 -1.37142,1.37689c-0.75741,0 -1.37142,-0.61646 -1.37142,-1.37689c0,-0.76044 0.61401,-1.37689 1.37142,-1.37689c0.75741,0 1.37142,0.61645 1.37142,1.37689z"/></g><path d="M242.73463,178.18574v-0.78054h4.39184v0.78054z"/><path d="M235.52001,179.49768l1.90137,-3.11006l5.03426,0.00937l1.76234,3.1007z"/><path d="M232.94392,181.67679c0,0 -0.10249,-2.25015 2.34319,-2.25015c2.98714,0 7.83873,0 9.41119,0c1.1208,0 2.07053,0.76051 2.07053,2.25314z"/></g></g></g></svg>