<svg version="1.1" xmlns="http://www.w3.org/2000/svg" xmlns:xlink="http://www.w3.org/1999/xlink" width="22" height="22.33336" viewBox="0,0,22,22.33336"><g transform="translate(-227.4167,-167.1667)"><g data-paper-data="{&quot;isPaintingLayer&quot;:true}" fill-rule="nonzero" stroke="#000000" stroke-width="1.5" stroke-linejoin="miter" stroke-miterlimit="10" stroke-dasharray="" stroke-dashoffset="0" style="mix-blend-mode: normal"><path d="M231.2584,188.74174l-2.83333,-2.65834l2.83333,-14.74166l15.07501,-3.25l2.32499,2.66667v17.98333z" fill="#00ff67" stroke-linecap="butt"/><path d="M228.17503,185.32503v-17.4h17.4v17.4z" fill="#00ff67" stroke-linecap="butt"/><path d="M228.16671,186.25007l2.5,2.5" fill="none" stroke-linecap="round"/><path d="M248.33335,188.33336l-2.5,-2.5" fill="none" stroke-linecap="round"/><path d="M248.66671,170.41671l-2.5,-2.5" fill="none" stroke-linecap="round"/><g><path d="M234.8255,181.01318v-8.23038l6.46667,-2.23629l-0.1096,8.49789" fill="none" stroke-linecap="round"/><path d="M231.35884,181.07985c0,-0.95729 0.77604,-1.73334 1.73334,-1.73334c0.95729,0 1.73333,0.77604 1.73333,1.73334c0,0.95729 -0.77604,1.73333 -1.73333,1.73333c-0.95729,0 -1.73334,-0.77604 -1.73334,-1.73333z" fill="#000000" stroke-linecap="butt"/><path d="M237.75884,179.21318c0,-0.95729 0.77604,-1.73334 1.73333,-1.73334c0.95729,0 1.73333,0.77604 1.73333,1.73334c0,0.95729 -0.77604,1.73333 -1.73333,1.73333c-0.95729,0 -1.73333,-0.77604 -1.73333,-1.73333z" fill="#000000" stroke-linecap="butt"/></g></g></g></svg>