<svg version="1.1" xmlns="http://www.w3.org/2000/svg" xmlns:xlink="http://www.w3.org/1999/xlink" width="18.9" height="18.9" viewBox="0,0,18.9,18.9"><g transform="translate(-230.55,-170.55)"><g data-paper-data="{&quot;isPaintingLayer&quot;:true}" fill-rule="nonzero" stroke="#000000" stroke-width="1.5" stroke-linejoin="miter" stroke-miterlimit="10" stroke-dasharray="" stroke-dashoffset="0" style="mix-blend-mode: normal"><path d="M231.3,188.7v-17.4h17.4v17.4z" fill="#ffffff" stroke-linecap="butt"/><g><path d="M238,184.20833v-8.23038l6.46667,-2.23629l-0.1096,8.49789" fill="none" stroke-linecap="round"/><path d="M234.53334,184.27501c0,-0.95729 0.77604,-1.73334 1.73334,-1.73334c0.95729,0 1.73333,0.77604 1.73333,1.73334c0,0.95729 -0.77604,1.73333 -1.73333,1.73333c-0.95729,0 -1.73334,-0.77604 -1.73334,-1.73333z" fill="#000000" stroke-linecap="butt"/><path d="M240.93334,182.40834c0,-0.95729 0.77604,-1.73334 1.73333,-1.73334c0.95729,0 1.73333,0.77604 1.73333,1.73334c0,0.95729 -0.77604,1.73333 -1.73333,1.73333c-0.95729,0 -1.73333,-0.77604 -1.73333,-1.73333z" fill="#000000" stroke-linecap="butt"/></g></g></g></svg>