<svg version="1.1" xmlns="http://www.w3.org/2000/svg" xmlns:xlink="http://www.w3.org/1999/xlink" width="22.49999" height="22.83334" viewBox="0,0,22.49999,22.83334"><g transform="translate(-227.16668,-166.91669)"><g data-paper-data="{&quot;isPaintingLayer&quot;:true}" fill-rule="nonzero" stroke="#000000" stroke-linejoin="miter" stroke-miterlimit="10" stroke-dasharray="" stroke-dashoffset="0" style="mix-blend-mode: normal"><path d="M231.25834,188.74171l-2.83333,-2.65834l2.83333,-14.74166l15.07501,-3.25l2.32499,2.66667v17.98333z" fill="#ffffff" stroke-width="2" stroke-linecap="butt"/><path d="M228.175,185.32501v-17.4h17.4v17.4z" fill="#ffffff" stroke-width="2" stroke-linecap="butt"/><path d="M230.66668,188.75004l-2.5,-2.5" fill="none" stroke-width="2" stroke-linecap="round"/><path d="M248.33333,188.33334l-2.5,-2.5" fill="none" stroke-width="2" stroke-linecap="round"/><path d="M248.66667,170.41669l-2.5,-2.5" fill="none" stroke-width="2" stroke-linecap="round"/><g fill="#000000" stroke-width="0.5" stroke-linecap="butt"><g><path d="M231.5605,180.04848c0,0 -1.86929,0.11177 -1.83427,-1.63732c0.02568,-1.28225 1.83427,-1.37889 1.83427,-1.37889h10.66576c0,0 1.36603,-0.07755 1.43606,1.42338c0.06358,1.36275 -1.43606,1.59283 -1.43606,1.59283z"/><path d="M232.55405,178.50712c0,0.76044 -0.61401,1.37689 -1.37142,1.37689c-0.75741,0 -1.37142,-0.61646 -1.37142,-1.37689c0,-0.76044 0.61401,-1.37689 1.37142,-1.37689c0.75741,0 1.37142,0.61645 1.37142,1.37689z"/><path d="M235.30156,178.54088c0,0.76044 -0.61401,1.37689 -1.37142,1.37689c-0.75741,0 -1.37142,-0.61645 -1.37142,-1.37689c0,-0.76044 0.61401,-1.37689 1.37142,-1.37689c0.75741,0 1.37142,0.61646 1.37142,1.37689z"/><path d="M238.09545,178.50477c0,0.76044 -0.61401,1.37689 -1.37142,1.37689c-0.75741,0 -1.37142,-0.61646 -1.37142,-1.37689c0,-0.76044 0.61401,-1.37689 1.37142,-1.37689c0.75741,0 1.37142,0.61645 1.37142,1.37689z"/><path d="M240.84294,178.51519c0,0.76044 -0.61401,1.37689 -1.37142,1.37689c-0.75741,0 -1.37142,-0.61646 -1.37142,-1.37689c0,-0.76044 0.61401,-1.37689 1.37142,-1.37689c0.75741,0 1.37142,0.61645 1.37142,1.37689z"/><path d="M243.63683,178.50238c0,0.76044 -0.61401,1.37689 -1.37142,1.37689c-0.75741,0 -1.37142,-0.61646 -1.37142,-1.37689c0,-0.76044 0.61401,-1.37689 1.37142,-1.37689c0.75741,0 1.37142,0.61645 1.37142,1.37689z"/></g><path d="M239.58684,174.62326v-0.78054h4.39184v0.78054z"/><path d="M232.37222,175.93521l1.90137,-3.11006l5.03426,0.00937l1.76234,3.1007z"/><path d="M229.79613,178.1143c0,0 -0.10249,-2.25015 2.34319,-2.25015c2.98714,0 7.83873,0 9.41119,0c1.1208,0 2.07053,0.76051 2.07053,2.25314z"/></g></g></g></svg>