<svg version="1.1" xmlns="http://www.w3.org/2000/svg" xmlns:xlink="http://www.w3.org/1999/xlink" width="482.42738" height="361.98167" viewBox="0,0,482.42738,361.98167"><defs><radialGradient cx="240" cy="180.00001" r="241.21369" gradientUnits="userSpaceOnUse" id="color-1"><stop offset="0" stop-color="#1a1a1a" stop-opacity="0"/><stop offset="1" stop-color="#1a1a1a"/></radialGradient></defs><g transform="translate(1.21369,0.99083)"><g data-paper-data="{&quot;isPaintingLayer&quot;:true}" fill-rule="nonzero" stroke-linecap="butt" stroke-linejoin="miter" stroke-miterlimit="10" stroke-dasharray="" stroke-dashoffset="0" style="mix-blend-mode: normal"><path d="M-1.21369,360.99085v-361.98167h482.42738v361.98167z" fill="url(#color-1)" stroke="#000000" stroke-width="0"/><text transform="translate(5.58014,47.48333) scale(0.42438,0.42438)" font-size="40" xml:space="preserve" fill="#ffffff" fill-rule="nonzero" stroke="none" stroke-width="1" stroke-linecap="butt" stroke-linejoin="miter" stroke-miterlimit="10" stroke-dasharray="" stroke-dashoffset="0" font-family="Sans Serif" font-weight="normal" text-anchor="start" style="mix-blend-mode: normal"><tspan x="0" dy="0">Industry Level:</tspan></text><text transform="translate(5.9051,74.52279) scale(0.42438,0.42438)" font-size="40" xml:space="preserve" fill="#ffffff" fill-rule="nonzero" stroke="none" stroke-width="1" stroke-linecap="butt" stroke-linejoin="miter" stroke-miterlimit="10" stroke-dasharray="" stroke-dashoffset="0" font-family="Sans Serif" font-weight="normal" text-anchor="start" style="mix-blend-mode: normal"><tspan x="0" dy="0"># of soldiers:</tspan></text><text transform="translate(5.5622,100.8944) scale(0.42438,0.42438)" font-size="40" xml:space="preserve" fill="#ffffff" fill-rule="nonzero" stroke="none" stroke-width="1" stroke-linecap="butt" stroke-linejoin="miter" stroke-miterlimit="10" stroke-dasharray="" stroke-dashoffset="0" font-family="Sans Serif" font-weight="normal" text-anchor="start" style="mix-blend-mode: normal"><tspan x="0" dy="0">Fort Level:</tspan></text><text transform="translate(156.23445,125.93028) scale(0.42438,0.42438)" font-size="40" xml:space="preserve" fill="#ffffff" fill-rule="nonzero" stroke="none" stroke-width="1" stroke-linecap="butt" stroke-linejoin="miter" stroke-miterlimit="10" stroke-dasharray="" stroke-dashoffset="0" font-family="Sans Serif" font-weight="normal" text-anchor="start" style="mix-blend-mode: normal"><tspan x="0" dy="0">To province #:</tspan></text><text transform="translate(106.39155,156.97694) scale(0.42438,0.42438)" font-size="40" xml:space="preserve" fill="#ffffff" fill-rule="nonzero" stroke="none" stroke-width="1" stroke-linecap="butt" stroke-linejoin="miter" stroke-miterlimit="10" stroke-dasharray="" stroke-dashoffset="0" font-family="Sans Serif" font-weight="normal" text-anchor="start" style="mix-blend-mode: normal"><tspan x="0" dy="0">-&gt;</tspan></text><text transform="translate(176.09212,185.76044) scale(0.42438,0.42438)" font-size="40" xml:space="preserve" fill="#ffffff" fill-rule="nonzero" stroke="none" stroke-width="1" stroke-linecap="butt" stroke-linejoin="miter" stroke-miterlimit="10" stroke-dasharray="" stroke-dashoffset="0" font-family="Sans Serif" font-weight="normal" text-anchor="start" style="mix-blend-mode: normal"><tspan x="0" dy="0">On province #:</tspan></text><path d="M199.5943,167.29958v-31.19285h119.42384v31.19285z" fill="#810000" stroke="#000000" stroke-width="1.5"/><text transform="translate(211.3349,162.3766) scale(0.20351,0.20351)" font-size="40" xml:space="preserve" fill="#ffffff" fill-rule="nonzero" stroke="none" stroke-width="1" stroke-linecap="butt" stroke-linejoin="miter" stroke-miterlimit="10" stroke-dasharray="" stroke-dashoffset="0" font-family="Sans Serif" font-weight="normal" text-anchor="start" style="mix-blend-mode: normal"><tspan x="0" dy="0">Press 1</tspan></text><text transform="translate(251.66832,162.35371) scale(0.20351,0.20351)" font-size="40" xml:space="preserve" fill="#ffffff" fill-rule="nonzero" stroke="none" stroke-width="1" stroke-linecap="butt" stroke-linejoin="miter" stroke-miterlimit="10" stroke-dasharray="" stroke-dashoffset="0" font-family="Sans Serif" font-weight="normal" text-anchor="start" style="mix-blend-mode: normal"><tspan x="0" dy="0">Press 2</tspan></text><text transform="translate(285.76643,161.98442) scale(0.20351,0.20351)" font-size="40" xml:space="preserve" fill="#ffffff" fill-rule="nonzero" stroke="none" stroke-width="1" stroke-linecap="butt" stroke-linejoin="miter" stroke-miterlimit="10" stroke-dasharray="" stroke-dashoffset="0" font-family="Sans Serif" font-weight="normal" text-anchor="start" style="mix-blend-mode: normal"><tspan x="0" dy="0">Press 3</tspan></text><text transform="translate(209.92238,9.89564) scale(0.20859,0.20859)" font-size="40" xml:space="preserve" fill="#ffffff" fill-rule="nonzero" stroke="none" stroke-width="1" stroke-linecap="butt" stroke-linejoin="miter" stroke-miterlimit="10" stroke-dasharray="" stroke-dashoffset="0" font-family="Sans Serif" font-weight="normal" text-anchor="start" style="mix-blend-mode: normal"><tspan x="0" dy="0">press space while holding</tspan><tspan x="0" dy="46.15px">your mouse down here</tspan><tspan x="0" dy="46.15px">to spam out troops</tspan></text><path d="M187.5561,49.93203c0.28268,-1.21762 1.50029,-0.93494 1.50029,-0.93494l1.22887,0.30275c1.68145,0.70316 3.45434,1.17926 5.19028,1.73481c0.18107,0.05795 0.36461,0.14139 0.5492,0.22912c-5.0197,-7.69943 -0.80081,-21.46414 8.09079,-24.17411c0,0 1.19744,-0.35868 1.55611,0.83876c0.35868,1.19744 -0.83876,1.55611 -0.83876,1.55611c-7.12962,2.09205 -10.85951,13.89674 -6.88055,20.19382c0.4394,-1.91075 0.88723,-3.8196 1.33061,-5.72943c0,0 0.28268,-1.21762 1.50029,-0.93494c1.21762,0.28268 0.93494,1.50029 0.93494,1.50029c-0.44621,1.92205 -0.89503,8.18219 -2.80945,9.24728c-2.14882,1.1955 -7.58889,-1.33168 -9.58148,-2.15256l-0.83622,-0.17667c0,0 -1.21762,-0.28268 -0.93494,-1.50029z" fill="#ffffff" stroke="none" stroke-width="0.5"/></g></g></svg>