<svg version="1.1" xmlns="http://www.w3.org/2000/svg" xmlns:xlink="http://www.w3.org/1999/xlink" width="97.18749" height="37" viewBox="0,0,97.18749,37"><defs><radialGradient cx="240" cy="180" r="18.5" gradientUnits="userSpaceOnUse" id="color-1"><stop offset="0" stop-color="#ffffff"/><stop offset="1" stop-color="#ffffff" stop-opacity="0"/></radialGradient><radialGradient cx="80.65625" cy="82.46876" r="0.00125" gradientUnits="userSpaceOnUse" id="color-2"><stop offset="0" stop-color="#fdff00"/><stop offset="1" stop-color="#fdff00" stop-opacity="0"/></radialGradient></defs><g transform="translate(-161.31251,-161.5)"><g data-paper-data="{&quot;isPaintingLayer&quot;:true}" fill-rule="nonzero" stroke-linejoin="miter" stroke-miterlimit="10" stroke-dasharray="" stroke-dashoffset="0" style="mix-blend-mode: normal"><path d="M244.88748,187.776l-13.27071,-10.7557l17.01648,-0.21404l-14.12688,11.45135l5.61865,-18.14021z" fill="#fdff00" stroke="#ff9800" stroke-width="2" stroke-linecap="round"/><path d="M244.13968,186.49885l-11.18694,-9.06684l14.34455,-0.18043l-11.90867,9.65325l4.73641,-15.29183z" fill="#fdff00" stroke="#fdff00" stroke-width="0" stroke-linecap="round"/><g fill="#fdff00" stroke-linecap="round"><path d="M235.11253,172.224l13.27071,10.7557l-17.01648,0.21404l14.12688,-11.45135l-5.61865,18.14021z" stroke="#ff9800" stroke-width="2"/><path d="M235.86033,173.50115l11.18694,9.06684l-14.34455,0.18043l11.90867,-9.65325l-4.73641,15.29183z" stroke="#fdff00" stroke-width="0"/></g><path d="M221.5,180c0,-10.21727 8.28273,-18.5 18.5,-18.5c10.21727,0 18.5,8.28273 18.5,18.5c0,10.21727 -8.28273,18.5 -18.5,18.5c-10.21727,0 -18.5,-8.28273 -18.5,-18.5z" fill="url(#color-1)" stroke="none" stroke-width="NaN" stroke-linecap="butt"/><path d="M161.31251,164.9375v0v0z" fill="url(#color-2)" stroke="none" stroke-width="0" stroke-linecap="butt"/></g></g></svg>