<svg version="1.1" xmlns="http://www.w3.org/2000/svg" xmlns:xlink="http://www.w3.org/1999/xlink" width="22.02198" height="11.97765" viewBox="0,0,22.02198,11.97765"><g transform="translate(-229.03611,-174.0737)"><g data-paper-data="{&quot;isPaintingLayer&quot;:true}" fill-rule="nonzero" stroke="#000000" stroke-width="1" stroke-linejoin="miter" stroke-miterlimit="10" stroke-dasharray="" stroke-dashoffset="0" style="mix-blend-mode: normal"><g><path d="M246.92513,185.55135l0.02919,-2.94203" fill="none" stroke-linecap="round"/><g stroke-linecap="butt"><path d="M249.97565,179.32254c0,1.67949 -1.34839,3.04098 -3.0117,3.04098c-1.66332,0 -3.0117,-1.36149 -3.0117,-3.04098c0,-1.67949 1.34839,-3.04098 3.0117,-3.04098c1.66332,0 3.0117,1.36149 3.0117,3.04098z" fill="#ffffff"/><path d="M250.46388,177.72004l-7.3543,1.65979c0,0 -0.7941,-3.69575 2.83919,-4.54279c3.85895,-0.89965 4.51512,2.883 4.51512,2.883z" fill="#810000"/></g></g><g><path d="M242.42513,185.42635l0.02919,-2.94203" fill="none" stroke-linecap="round"/><g stroke-linecap="butt"><path d="M245.47565,179.19754c0,1.67949 -1.34839,3.04098 -3.0117,3.04098c-1.66332,0 -3.0117,-1.36149 -3.0117,-3.04098c0,-1.67949 1.34839,-3.04098 3.0117,-3.04098c1.66332,0 3.0117,1.36149 3.0117,3.04098z" fill="#ffffff"/><path d="M245.96388,177.59504l-7.3543,1.65979c0,0 -0.7941,-3.69575 2.83919,-4.54279c3.85895,-0.89965 4.51512,2.883 4.51512,2.883z" fill="#810000"/></g></g><g data-paper-data="{&quot;index&quot;:null}"><path d="M237.95432,182.48432l-0.02919,2.94203" fill="none" stroke-linecap="round"/><g stroke-linecap="butt"><path d="M240.97565,179.19754c0,1.67949 -1.34839,3.04098 -3.0117,3.04098c-1.66332,0 -3.0117,-1.36149 -3.0117,-3.04098c0,-1.67949 1.34839,-3.04098 3.0117,-3.04098c1.66332,0 3.0117,1.36149 3.0117,3.04098z" fill="#ffffff"/><path d="M241.46388,177.59504l-7.3543,1.65979c0,0 -0.7941,-3.69575 2.83919,-4.54279c3.85895,-0.89965 4.51512,2.883 4.51512,2.883z" fill="#810000"/></g></g><g><path d="M233.45432,182.60931l-0.02919,2.94203" fill="none" stroke-linecap="round"/><g stroke-linecap="butt"><path d="M236.47565,179.32254c0,1.67949 -1.34839,3.04098 -3.0117,3.04098c-1.66332,0 -3.0117,-1.36149 -3.0117,-3.04098c0,-1.67949 1.34839,-3.04098 3.0117,-3.04098c1.66332,0 3.0117,1.36149 3.0117,3.04098z" fill="#ffffff"/><path d="M236.96388,177.72003l-7.3543,1.65979c0,0 -0.7941,-3.69575 2.83919,-4.54279c3.85895,-0.89965 4.51512,2.883 4.51512,2.883z" fill="#810000"/></g></g></g></g></svg>