<svg version="1.1" xmlns="http://www.w3.org/2000/svg" xmlns:xlink="http://www.w3.org/1999/xlink" width="31.03187" height="30.47501" viewBox="0,0,31.03187,30.47501"><g transform="translate(-224.35907,-157.69986)"><g data-paper-data="{&quot;isPaintingLayer&quot;:true}" fill-rule="nonzero" stroke="#000000" stroke-linecap="butt" stroke-linejoin="miter" stroke-miterlimit="10" stroke-dasharray="" stroke-dashoffset="0" style="mix-blend-mode: normal"><g stroke-width="1"><path d="M228.75719,187.67182c0,0 -3.97151,0.23747 -3.89709,-3.47865c0.05456,-2.72428 3.89709,-2.9296 3.89709,-2.9296h22.66053c0,0 2.90227,-0.16476 3.05107,3.02412c0.13508,2.8953 -3.05107,3.38414 -3.05107,3.38414z" fill="#666666"/><path d="M230.86811,184.39709c0,1.61563 -1.30452,2.92535 -2.91372,2.92535c-1.6092,0 -2.91372,-1.30973 -2.91372,-2.92535c0,-1.61563 1.30452,-2.92535 2.91372,-2.92535c1.6092,0 2.91372,1.30972 2.91372,2.92535z" fill="#8b8b8b"/><path d="M236.70548,184.46878c0,1.61563 -1.30452,2.92535 -2.91372,2.92535c-1.6092,0 -2.91372,-1.30972 -2.91372,-2.92535c0,-1.61563 1.30452,-2.92535 2.91372,-2.92535c1.6092,0 2.91372,1.30973 2.91372,2.92535z" fill="#8b8b8b"/><path d="M242.64138,184.39206c0,1.61563 -1.30452,2.92535 -2.91372,2.92535c-1.6092,0 -2.91372,-1.30973 -2.91372,-2.92535c0,-1.61563 1.30452,-2.92535 2.91372,-2.92535c1.6092,0 2.91372,1.30972 2.91372,2.92535z" fill="#8b8b8b"/><path d="M248.47871,184.41424c0,1.61563 -1.30452,2.92535 -2.91372,2.92535c-1.6092,0 -2.91372,-1.30973 -2.91372,-2.92535c0,-1.61563 1.30452,-2.92535 2.91372,-2.92535c1.6092,0 2.91372,1.30972 2.91372,2.92535z" fill="#8b8b8b"/><path d="M254.41462,184.387c0,1.61563 -1.30452,2.92535 -2.91372,2.92535c-1.6092,0 -2.91372,-1.30973 -2.91372,-2.92535c0,-1.61563 1.30452,-2.92535 2.91372,-2.92535c1.6092,0 2.91372,1.30972 2.91372,2.92535z" fill="#8b8b8b"/></g><path d="M245.81001,176.1454v-1.65834h9.33093v1.65834z" fill="#999999" stroke-width="0.5"/><path d="M230.48179,178.93275l4.03966,-6.60764l10.69582,0.0199l3.74428,6.58776z" fill="#0e4600" stroke-width="1"/><path d="M225.00861,183.56249c0,0 -0.21775,-4.78067 4.97835,-4.78067c6.3465,0 16.65421,0 19.99506,0c2.38126,0 4.39906,1.61578 4.39906,4.78704z" fill="#0e4600" stroke-width="1"/><g stroke-width="0.5"><g><path d="M232.5444,168.29782c0,0 -2.67784,0.16012 -2.62766,-2.34552c0.03679,-1.83688 2.62766,-1.97532 2.62766,-1.97532h15.27913c0,0 1.95689,-0.11109 2.05722,2.03905c0.09108,1.95219 -2.05722,2.2818 -2.05722,2.2818z" fill="#666666"/><path d="M233.96771,166.0898c0,1.08936 -0.87959,1.97245 -1.96461,1.97245c-1.08502,0 -1.96461,-0.8831 -1.96461,-1.97245c0,-1.08936 0.87959,-1.97245 1.96461,-1.97245c1.08502,0 1.96461,0.88309 1.96461,1.97245z" fill="#8b8b8b"/><path d="M237.90363,166.13814c0,1.08936 -0.87959,1.97245 -1.96461,1.97245c-1.08502,0 -1.96461,-0.88309 -1.96461,-1.97245c0,-1.08936 0.87959,-1.97245 1.96461,-1.97245c1.08502,0 1.96461,0.8831 1.96461,1.97245z" fill="#8b8b8b"/><path d="M241.90598,166.08641c0,1.08936 -0.87959,1.97245 -1.96461,1.97245c-1.08502,0 -1.96461,-0.8831 -1.96461,-1.97245c0,-1.08936 0.87959,-1.97245 1.96461,-1.97245c1.08502,0 1.96461,0.88309 1.96461,1.97245z" fill="#8b8b8b"/><path d="M245.84187,166.10136c0,1.08936 -0.87959,1.97245 -1.96461,1.97245c-1.08502,0 -1.96461,-0.8831 -1.96461,-1.97245c0,-1.08936 0.87959,-1.97245 1.96461,-1.97245c1.08502,0 1.96461,0.88309 1.96461,1.97245z" fill="#8b8b8b"/><path d="M249.84423,166.08299c0,1.08936 -0.87959,1.97245 -1.96461,1.97245c-1.08502,0 -1.96461,-0.8831 -1.96461,-1.97245c0,-1.08936 0.87959,-1.97245 1.96461,-1.97245c1.08502,0 1.96461,0.88309 1.96461,1.97245z" fill="#8b8b8b"/></g><path d="M244.04247,160.526v-1.11816h6.29149v1.11816z" fill="#999999"/><path d="M233.70723,162.4054l2.72379,-4.45528l7.21178,0.01342l2.52463,4.44188z" fill="#0e4600"/><path d="M230.01687,165.52705c0,0 -0.14682,-3.22342 3.35671,-3.22342c4.2792,0 11.2293,0 13.48191,0c1.60559,0 2.96612,1.08946 2.96612,3.22772z" fill="#0e4600"/></g></g></g></svg>