<svg version="1.1" xmlns="http://www.w3.org/2000/svg" xmlns:xlink="http://www.w3.org/1999/xlink" width="22.49999" height="22.83336" viewBox="0,0,22.49999,22.83336"><g transform="translate(-227.16668,-166.91669)"><g data-paper-data="{&quot;isPaintingLayer&quot;:true}" fill-rule="nonzero" stroke-linejoin="miter" stroke-miterlimit="10" stroke-dasharray="" stroke-dashoffset="0" style="mix-blend-mode: normal"><path d="M231.25834,188.74172l-2.83333,-2.65834l2.83333,-14.74166l15.07501,-3.25l2.32499,2.66667v17.98333z" fill="#ffffff" stroke="#000000" stroke-width="2" stroke-linecap="butt"/><path d="M228.175,185.32501v-17.4h17.4v17.4z" fill="#ffffff" stroke="#000000" stroke-width="2" stroke-linecap="butt"/><path d="M230.66668,188.75005l-2.5,-2.5" fill="none" stroke="#000000" stroke-width="2" stroke-linecap="round"/><path d="M248.33333,188.33334l-2.5,-2.5" fill="none" stroke="#000000" stroke-width="2" stroke-linecap="round"/><path d="M248.66667,170.41669l-2.5,-2.5" fill="none" stroke="#000000" stroke-width="2" stroke-linecap="round"/><path d="M230.97918,176.45834c0,-3.34823 2.71427,-6.0625 6.0625,-6.0625c3.34823,0 6.0625,2.71427 6.0625,6.0625c0,3.34823 -2.71427,6.0625 -6.0625,6.0625c-3.34823,0 -6.0625,-2.71427 -6.0625,-6.0625z" fill="#000000" stroke="none" stroke-width="0" stroke-linecap="butt"/><text transform="translate(234.47504,178.95005) scale(0.16937,0.16937)" font-size="40" xml:space="preserve" fill="#ffffff" fill-rule="nonzero" stroke="none" stroke-width="1" stroke-linecap="butt" stroke-linejoin="miter" stroke-miterlimit="10" stroke-dasharray="" stroke-dashoffset="0" font-family="Sans Serif" font-weight="normal" text-anchor="start" style="mix-blend-mode: normal"><tspan x="0" dy="0">C</tspan></text></g></g></svg>