<svg version="1.1" xmlns="http://www.w3.org/2000/svg" xmlns:xlink="http://www.w3.org/1999/xlink" width="28.14697" height="24.22766" viewBox="0,0,28.14697,24.22766"><g transform="translate(-225.66112,-167.6987)"><g data-paper-data="{&quot;isPaintingLayer&quot;:true}" fill-rule="nonzero" stroke="#000000" stroke-width="1" stroke-linejoin="miter" stroke-miterlimit="10" stroke-dasharray="" stroke-dashoffset="0" style="mix-blend-mode: normal"><g><path d="M249.42514,179.05135l0.02919,-2.94203" fill="none" stroke-linecap="round"/><g stroke-linecap="butt"><path d="M252.47565,172.82254c0,1.67949 -1.34839,3.04098 -3.0117,3.04098c-1.66332,0 -3.0117,-1.36149 -3.0117,-3.04098c0,-1.67949 1.34839,-3.04098 3.0117,-3.04098c1.66332,0 3.0117,1.36149 3.0117,3.04098z" fill="#ffffff"/><path d="M252.96389,171.22004l-7.3543,1.65979c0,0 -0.7941,-3.69575 2.83919,-4.54279c3.85895,-0.89965 4.51512,2.883 4.51512,2.883z" fill="#810000"/></g></g><g><path d="M244.95433,176.10932l-0.02919,2.94203" fill="none" stroke-linecap="round"/><g stroke-linecap="butt"><path d="M247.97566,172.82254c0,1.67949 -1.34839,3.04098 -3.0117,3.04098c-1.66332,0 -3.0117,-1.36149 -3.0117,-3.04098c0,-1.67949 1.34839,-3.04098 3.0117,-3.04098c1.66332,0 3.0117,1.36149 3.0117,3.04098z" fill="#ffffff"/><path d="M248.46389,171.22004l-7.3543,1.65979c0,0 -0.7941,-3.69575 2.83919,-4.54279c3.85895,-0.89965 4.51512,2.883 4.51512,2.883z" fill="#810000"/></g></g><g><path d="M240.07933,176.10932l-0.02919,2.94203" fill="none" stroke-linecap="round"/><g stroke-linecap="butt"><path d="M243.10066,172.82254c0,1.67949 -1.34839,3.04098 -3.0117,3.04098c-1.66332,0 -3.0117,-1.36149 -3.0117,-3.04098c0,-1.67949 1.34839,-3.04098 3.0117,-3.04098c1.66332,0 3.0117,1.36149 3.0117,3.04098z" fill="#ffffff"/><path d="M243.58889,171.22004l-7.3543,1.65979c0,0 -0.7941,-3.69575 2.83919,-4.54279c3.85895,-0.89965 4.51512,2.883 4.51512,2.883z" fill="#810000"/></g></g><g><path d="M234.95434,176.23433l-0.02919,2.94203" fill="none" stroke-linecap="round"/><g stroke-linecap="butt"><path d="M237.97567,172.94755c0,1.67949 -1.34839,3.04098 -3.0117,3.04098c-1.66332,0 -3.0117,-1.36149 -3.0117,-3.04098c0,-1.67949 1.34839,-3.04098 3.0117,-3.04098c1.66332,0 3.0117,1.36149 3.0117,3.04098z" fill="#ffffff"/><path d="M238.4639,171.34505l-7.3543,1.65979c0,0 -0.7941,-3.69575 2.83919,-4.54279c3.85895,-0.89965 4.51512,2.883 4.51512,2.883z" fill="#810000"/></g></g><g><path d="M230.07933,176.23432l-0.02919,2.94203" fill="none" stroke-linecap="round"/><g stroke-linecap="butt"><path d="M233.10066,172.94754c0,1.67949 -1.34839,3.04098 -3.0117,3.04098c-1.66332,0 -3.0117,-1.36149 -3.0117,-3.04098c0,-1.67949 1.34839,-3.04098 3.0117,-3.04098c1.66332,0 3.0117,1.36149 3.0117,3.04098z" fill="#ffffff"/><path d="M233.58889,171.34504l-7.3543,1.65979c0,0 -0.7941,-3.69575 2.83919,-4.54279c3.85895,-0.89965 4.51512,2.883 4.51512,2.883z" fill="#810000"/></g></g><g><path d="M249.57933,182.10932l-0.02919,2.94203" fill="none" stroke-linecap="round"/><g stroke-linecap="butt"><path d="M252.60066,178.82254c0,1.67949 -1.34839,3.04098 -3.0117,3.04098c-1.66332,0 -3.0117,-1.36149 -3.0117,-3.04098c0,-1.67949 1.34839,-3.04098 3.0117,-3.04098c1.66332,0 3.0117,1.36149 3.0117,3.04098z" fill="#ffffff"/><path d="M253.08889,177.22004l-7.3543,1.65979c0,0 -0.7941,-3.69575 2.83919,-4.54279c3.85895,-0.89965 4.51512,2.883 4.51512,2.883z" fill="#810000"/></g></g><g><path d="M249.70432,188.35932l-0.02919,2.94203" fill="none" stroke-linecap="round"/><g stroke-linecap="butt"><path d="M252.72565,185.07254c0,1.67949 -1.34839,3.04098 -3.0117,3.04098c-1.66332,0 -3.0117,-1.36149 -3.0117,-3.04098c0,-1.67949 1.34839,-3.04098 3.0117,-3.04098c1.66332,0 3.0117,1.36149 3.0117,3.04098z" fill="#ffffff"/><path d="M253.21388,183.47004l-7.3543,1.65979c0,0 -0.7941,-3.69575 2.83919,-4.54279c3.85895,-0.89965 4.51512,2.883 4.51512,2.883z" fill="#810000"/></g></g><g><path d="M245.05014,185.05135l0.02919,-2.94203" fill="none" stroke-linecap="round"/><g stroke-linecap="butt"><path d="M248.10066,178.82254c0,1.67949 -1.34839,3.04098 -3.0117,3.04098c-1.66332,0 -3.0117,-1.36149 -3.0117,-3.04098c0,-1.67949 1.34839,-3.04098 3.0117,-3.04098c1.66332,0 3.0117,1.36149 3.0117,3.04098z" fill="#ffffff"/><path d="M248.58889,177.22004l-7.3543,1.65979c0,0 -0.7941,-3.69575 2.83919,-4.54279c3.85895,-0.89965 4.51512,2.883 4.51512,2.883z" fill="#810000"/></g></g><g><path d="M240.20433,182.10932l-0.02919,2.94203" fill="none" stroke-linecap="round"/><g stroke-linecap="butt"><path d="M243.22566,178.82254c0,1.67949 -1.34839,3.04098 -3.0117,3.04098c-1.66332,0 -3.0117,-1.36149 -3.0117,-3.04098c0,-1.67949 1.34839,-3.04098 3.0117,-3.04098c1.66332,0 3.0117,1.36149 3.0117,3.04098z" fill="#ffffff"/><path d="M243.71389,177.22004l-7.3543,1.65979c0,0 -0.7941,-3.69575 2.83919,-4.54279c3.85895,-0.89965 4.51512,2.883 4.51512,2.883z" fill="#810000"/></g></g><g><path d="M235.07934,182.23433l-0.02919,2.94203" fill="none" stroke-linecap="round"/><g stroke-linecap="butt"><path d="M238.10067,178.94755c0,1.67949 -1.34839,3.04098 -3.0117,3.04098c-1.66332,0 -3.0117,-1.36149 -3.0117,-3.04098c0,-1.67949 1.34839,-3.04098 3.0117,-3.04098c1.66332,0 3.0117,1.36149 3.0117,3.04098z" fill="#ffffff"/><path d="M238.5889,177.34505l-7.3543,1.65979c0,0 -0.7941,-3.69575 2.83919,-4.54279c3.85895,-0.89965 4.51512,2.883 4.51512,2.883z" fill="#810000"/></g></g><g><path d="M230.17514,185.17635l0.02919,-2.94203" fill="none" stroke-linecap="round"/><g stroke-linecap="butt"><path d="M233.22566,178.94754c0,1.67949 -1.34839,3.04098 -3.0117,3.04098c-1.66332,0 -3.0117,-1.36149 -3.0117,-3.04098c0,-1.67949 1.34839,-3.04098 3.0117,-3.04098c1.66332,0 3.0117,1.36149 3.0117,3.04098z" fill="#ffffff"/><path d="M233.71389,177.34504l-7.3543,1.65979c0,0 -0.7941,-3.69575 2.83919,-4.54279c3.85895,-0.89965 4.51512,2.883 4.51512,2.883z" fill="#810000"/></g></g><g><path d="M245.17513,191.30135l0.02919,-2.94203" fill="none" stroke-linecap="round"/><g stroke-linecap="butt"><path d="M248.22565,185.07254c0,1.67949 -1.34839,3.04098 -3.0117,3.04098c-1.66332,0 -3.0117,-1.36149 -3.0117,-3.04098c0,-1.67949 1.34839,-3.04098 3.0117,-3.04098c1.66332,0 3.0117,1.36149 3.0117,3.04098z" fill="#ffffff"/><path d="M248.71388,183.47004l-7.3543,1.65979c0,0 -0.7941,-3.69575 2.83919,-4.54279c3.85895,-0.89965 4.51512,2.883 4.51512,2.883z" fill="#810000"/></g></g><g><path d="M240.32932,188.35932l-0.02919,2.94203" fill="none" stroke-linecap="round"/><g stroke-linecap="butt"><path d="M243.35065,185.07254c0,1.67949 -1.34839,3.04098 -3.0117,3.04098c-1.66332,0 -3.0117,-1.36149 -3.0117,-3.04098c0,-1.67949 1.34839,-3.04098 3.0117,-3.04098c1.66332,0 3.0117,1.36149 3.0117,3.04098z" fill="#ffffff"/><path d="M243.83888,183.47004l-7.3543,1.65979c0,0 -0.7941,-3.69575 2.83919,-4.54279c3.85895,-0.89965 4.51512,2.883 4.51512,2.883z" fill="#810000"/></g></g><g><path d="M235.20433,188.48433l-0.02919,2.94203" fill="none" stroke-linecap="round"/><g stroke-linecap="butt"><path d="M238.22566,185.19755c0,1.67949 -1.34839,3.04098 -3.0117,3.04098c-1.66332,0 -3.0117,-1.36149 -3.0117,-3.04098c0,-1.67949 1.34839,-3.04098 3.0117,-3.04098c1.66332,0 3.0117,1.36149 3.0117,3.04098z" fill="#ffffff"/><path d="M238.71389,183.59505l-7.3543,1.65979c0,0 -0.7941,-3.69575 2.83919,-4.54279c3.85895,-0.89965 4.51512,2.883 4.51512,2.883z" fill="#810000"/></g></g><g><path d="M230.30013,191.42635l0.02919,-2.94203" fill="none" stroke-linecap="round"/><g stroke-linecap="butt"><path d="M233.35065,185.19754c0,1.67949 -1.34839,3.04098 -3.0117,3.04098c-1.66332,0 -3.0117,-1.36149 -3.0117,-3.04098c0,-1.67949 1.34839,-3.04098 3.0117,-3.04098c1.66332,0 3.0117,1.36149 3.0117,3.04098z" fill="#ffffff"/><path d="M233.83888,183.59504l-7.3543,1.65979c0,0 -0.7941,-3.69575 2.83919,-4.54279c3.85895,-0.89965 4.51512,2.883 4.51512,2.883z" fill="#810000"/></g></g></g></g></svg>